<svg width="640" height="512" viewBox="0 0 640 512" fill="none" xmlns="http://www.w3.org/2000/svg">
  <path fill-rule="evenodd" clip-rule="evenodd" d="M352 368C352 288.4 416.4 224 496 224C575.6 224 640 288.4 640 368C640 447.6 575.6 512 496 512C416.4 512 352 447.6 352 368ZM338.2 290.5C326.7 313.9 320 340.2 320 368C320 427.5 349.8 480.1 395.1 512H48C21.5 512 0 490.5 0 464V422.4C0 348.2 60.2 288 134.4 288H151.1C173.4 298.2 198 304 224 304C250 304 274.7 298.2 296.9 288H313.6C322 288 330.2 289 338.2 290.5ZM352 128C352 198.7 294.7 256 224 256C153.3 256 96 198.7 96 128C96 57.3 153.3 0 224 0C294.7 0 352 57.3 352 128Z" fill="white"/>
  <g clip-path="url(#clip0_0_1)">
    <path d="M516.177 258.893L565 256L509.7 328.314H543.578L483.296 398.314L511.195 400.628L427 466L460.379 412.198H441.448L488.776 344.512L460.379 341.041L516.177 258.893Z" fill="#C4C4C4" stroke="white"/>
  </g>
  <defs>
    <clipPath id="clip0_0_1">
      <rect width="138" height="222" fill="red" transform="translate(427 256)"/>
    </clipPath>
  </defs>
</svg>
